<svg xmlns="http://www.w3.org/2000/svg" xmlns:xlink="http://www.w3.org/1999/xlink" width="100" zoomAndPan="magnify" viewBox="0 0 75 74.999997" height="100" preserveAspectRatio="xMidYMid meet" version="1.0"><defs><g/></defs><path fill="#1a38ff" d="M 3.75 0 L 71.25 0 C 73.320312 0 75 1.679688 75 3.75 L 75 71.25 C 75 73.320312 73.320312 75 71.25 75 L 3.75 75 C 1.679688 75 0 73.320312 0 71.25 L 0 3.75 C 0 1.679688 1.679688 0 3.75 0 " fill-opacity="1" fill-rule="nonzero"/><g fill="#ffffff" fill-opacity="1"><g transform="translate(14.250244, 44.575348)"><g><path d="M 4.46875 -14.84375 L 4.46875 -2.96875 L 9.578125 -2.96875 L 9.578125 0 L 1.078125 0 L 1.078125 -14.84375 Z M 4.46875 -14.84375 "/></g></g></g><g fill="#ffffff" fill-opacity="1"><g transform="translate(25.601635, 44.575348)"><g><path d="M 1.375 -14.375 C 1.75 -14.75 2.191406 -14.9375 2.703125 -14.9375 C 3.222656 -14.9375 3.671875 -14.75 4.046875 -14.375 C 4.421875 -14.007812 4.609375 -13.566406 4.609375 -13.046875 C 4.609375 -12.535156 4.421875 -12.09375 4.046875 -11.71875 C 3.671875 -11.34375 3.222656 -11.15625 2.703125 -11.15625 C 2.191406 -11.15625 1.75 -11.34375 1.375 -11.71875 C 1.007812 -12.09375 0.828125 -12.535156 0.828125 -13.046875 C 0.828125 -13.566406 1.007812 -14.007812 1.375 -14.375 Z M 1.078125 -9.234375 L 1.078125 0 L 4.265625 0 L 4.265625 -9.234375 Z M 1.078125 -9.234375 "/></g></g></g><g fill="#ffffff" fill-opacity="1"><g transform="translate(32.222096, 44.575348)"><g><path d="M 10.578125 -8.078125 C 11.441406 -7.128906 11.875 -5.972656 11.875 -4.609375 C 11.875 -3.242188 11.441406 -2.085938 10.578125 -1.140625 C 9.710938 -0.203125 8.617188 0.265625 7.296875 0.265625 C 6.066406 0.265625 5.054688 -0.171875 4.265625 -1.046875 L 4.234375 -1.046875 L 4.234375 0 L 1.078125 0 L 1.078125 -15.484375 L 4.265625 -15.484375 L 4.265625 -8.359375 C 5.054688 -9.117188 6.066406 -9.5 7.296875 -9.5 C 8.617188 -9.5 9.710938 -9.023438 10.578125 -8.078125 Z M 7.90625 -3.046875 C 8.300781 -3.453125 8.5 -3.972656 8.5 -4.609375 C 8.5 -5.242188 8.289062 -5.765625 7.875 -6.171875 C 7.457031 -6.578125 6.945312 -6.78125 6.34375 -6.78125 C 5.738281 -6.78125 5.226562 -6.578125 4.8125 -6.171875 C 4.394531 -5.765625 4.1875 -5.242188 4.1875 -4.609375 C 4.1875 -3.984375 4.390625 -3.46875 4.796875 -3.0625 C 5.203125 -2.65625 5.71875 -2.453125 6.34375 -2.453125 C 6.988281 -2.453125 7.507812 -2.648438 7.90625 -3.046875 Z M 7.90625 -3.046875 "/></g></g></g><g fill="#ffffff" fill-opacity="1"><g transform="translate(45.696102, 44.575348)"><g><path d="M 1.625 -9.234375 L 1.625 -11.203125 C 1.632812 -12.578125 1.957031 -13.675781 2.59375 -14.5 C 3.226562 -15.332031 4.109375 -15.75 5.234375 -15.75 C 5.710938 -15.75 6.171875 -15.675781 6.609375 -15.53125 C 7.046875 -15.394531 7.363281 -15.257812 7.5625 -15.125 L 7.859375 -14.921875 L 6.75 -12.671875 C 6.457031 -12.835938 6.140625 -12.921875 5.796875 -12.921875 C 5.398438 -12.921875 5.132812 -12.785156 5 -12.515625 C 4.875 -12.242188 4.8125 -11.773438 4.8125 -11.109375 L 4.8125 -9.234375 L 6.9375 -9.234375 L 6.9375 -6.796875 L 4.8125 -6.796875 L 4.8125 0 L 1.625 0 L 1.625 -6.796875 L 0.28125 -6.796875 L 0.28125 -9.234375 Z M 1.625 -9.234375 "/></g></g></g><g fill="#ffffff" fill-opacity="1"><g transform="translate(53.629704, 44.575348)"><g><path d="M 1.625 -9.234375 L 1.625 -12.671875 L 4.8125 -12.671875 L 4.8125 -9.234375 L 6.75 -9.234375 L 6.75 -6.796875 L 4.8125 -6.796875 L 4.8125 -3.875 C 4.8125 -3.019531 5.050781 -2.59375 5.53125 -2.59375 C 5.644531 -2.59375 5.769531 -2.613281 5.90625 -2.65625 C 6.039062 -2.707031 6.140625 -2.757812 6.203125 -2.8125 L 6.3125 -2.875 L 7.109375 -0.3125 C 6.421875 0.0703125 5.640625 0.265625 4.765625 0.265625 C 4.171875 0.265625 3.65625 0.160156 3.21875 -0.046875 C 2.789062 -0.253906 2.460938 -0.535156 2.234375 -0.890625 C 2.015625 -1.242188 1.859375 -1.613281 1.765625 -2 C 1.671875 -2.394531 1.625 -2.816406 1.625 -3.265625 L 1.625 -6.796875 L 0.28125 -6.796875 L 0.28125 -9.234375 Z M 1.625 -9.234375 "/></g></g></g></svg>